<?xml version="1.0" standalone="no"?>
<!DOCTYPE svg PUBLIC "-//W3C//DTD SVG 20010904//EN"
 "http://www.w3.org/TR/2001/REC-SVG-20010904/DTD/svg10.dtd">
<svg version="1.0" xmlns="http://www.w3.org/2000/svg"
 width="230.000000pt" height="202.000000pt" viewBox="0 0 230.000000 202.000000"
 preserveAspectRatio="xMidYMid meet">

<g transform="translate(0.000000,202.000000) scale(0.100000,-0.100000)"
fill="#004676" stroke="none">
<path d="M511 1645 l-251 -256 0 -372 0 -372 253 -258 252 -257 380 0 380 0
253 253 252 252 0 380 0 380 -257 252 -258 252 -376 0 -376 1 -252 -255z
m1142 -122 l207 -207 0 -301 -1 -300 -207 -213 -207 -213 -301 1 -302 0 -206
211 -206 210 0 302 0 302 207 207 208 208 300 0 300 0 208 -207z"/>
<path d="M715 1359 l-75 -72 0 -273 0 -274 156 -160 157 -160 211 0 211 0 118
118 118 118 -3 109 -3 109 -153 -142 c-110 -101 -161 -142 -178 -142 l-24 0 0
330 0 330 175 0 175 0 0 90 0 90 -405 0 -405 0 -75 -71z m355 -439 l0 -330
-22 0 c-15 0 -59 36 -135 112 l-113 113 0 211 c0 116 3 214 7 217 3 4 64 7
135 7 l128 0 0 -330z"/>
</g>
</svg>
